<svg style="display: none;" xmlns="http://www.w3.org/2000/svg">
    <symbol viewBox="0 0 17 17" id="search">
        <path d="M7.33737 0C9.29817 0 11.1417 0.732088 12.5278 2.06084C15.2134 4.63432 15.3792 8.72258 13.0264 11.4835L16.4749 14.789C16.7648 15.0668 16.7648 15.5169 16.4749 15.7947C16.33 15.9337 16.1401 16.0031 15.9503 16.0031C15.7605 16.0031 15.5706 15.9337 15.4257 15.7947L11.9771 12.4892C10.6706 13.5144 9.0489 14.0721 7.33724 14.0721C5.37644 14.0721 3.53288 13.3401 2.14678 12.0113C-0.715576 9.26837 -0.715576 4.8044 2.14678 2.06075C3.53314 0.732106 5.37657 0 7.33737 0ZM3.19617 11.0057C4.30268 12.0663 5.77304 12.6498 7.33741 12.6498C8.90178 12.6498 10.3721 12.0656 11.4786 11.0057C13.762 8.817 13.762 5.25524 11.4786 3.06673C10.3721 2.00681 8.90178 1.42266 7.33741 1.42266C5.77304 1.42266 4.30271 2.00681 3.19617 3.06673C0.912778 5.25595 0.912778 8.81717 3.19617 11.0057Z" />
    </symbol>

    <symbol viewBox="0 0 17 24" id="bag">
        <path d="M8.96061 1.09091e-05C7.8648 0.00107728 6.81416 0.442131 6.0378 1.22729C5.26243 2.01245 4.82642 3.07781 4.82432 4.18885V6.229H1.45907C1.16173 6.229 0.921143 6.47296 0.921143 6.77446V20.7273C0.921143 22.5351 2.36681 24 4.14869 24H13.7724C15.5543 24 17 22.5351 17 20.7273V6.77446C17 6.62957 16.9432 6.49106 16.8424 6.38879C16.7415 6.28652 16.6049 6.22899 16.462 6.22899H13.0968V4.18884C13.0947 3.07769 12.6587 2.01233 11.8833 1.22728C11.1069 0.442121 10.0562 0.00106364 8.96049 0L8.96061 1.09091e-05ZM5.9001 4.18885C5.9001 2.4747 7.27013 1.08547 8.96061 1.08547C10.6511 1.08547 12.0211 2.4747 12.0211 4.18885V6.229H5.9001V4.18885ZM15.9243 7.31978V20.7271C15.9243 21.3056 15.6974 21.8606 15.2939 22.2697C14.8905 22.6788 14.3431 22.9089 13.7726 22.9089H4.14888C2.9606 22.9089 1.99718 21.932 1.99718 20.7271V7.31978H4.82451V10.2707C4.82451 10.5722 5.0651 10.8162 5.36243 10.8162C5.65872 10.8162 5.90036 10.5722 5.90036 10.2707V7.31978H12.0214V10.2707C12.0214 10.5722 12.2631 10.8162 12.5593 10.8162C12.8567 10.8162 13.0973 10.5722 13.0973 10.2707V7.31978H15.9243Z"/>
    </symbol>

    <symbol viewBox="0 0 8 12" id="geo">
        <path d="M3.97779 0.119463C3.9851 0.118455 3.99241 0.117447 3.99997 0.117447L4.00004 0.117511H4.00407H4.01617C4.02574 0.117511 4.03532 0.119024 4.04439 0.121544C6.22581 0.144253 8.00001 1.80258 8.00001 3.85948C8.00001 4.52981 7.80495 5.15885 7.47581 5.70219V5.70622C7.47228 5.71429 7.46825 5.72235 7.46372 5.73041V5.72991C7.46306 5.7309 7.46218 5.73167 7.46124 5.73251C7.46073 5.73296 7.46021 5.73342 7.45968 5.73394V5.73798H7.45565C7.45464 5.74251 7.45313 5.74654 7.45162 5.75057L7.45162 5.75058L4.14117 11.1699C4.11546 11.2118 4.06959 11.2375 4.0202 11.2375C3.9708 11.2375 3.92494 11.2118 3.89923 11.1699L0.548394 5.75058C0.547735 5.74959 0.546861 5.74882 0.545913 5.74798C0.54541 5.74753 0.544886 5.74707 0.544361 5.74654C0.539825 5.73999 0.535793 5.73344 0.532265 5.72638C0.530752 5.72235 0.52924 5.71832 0.528232 5.71429V5.71025C0.195561 5.16483 0 4.53331 0 3.85941C0 1.80238 1.77419 0.14416 3.95561 0.121479C3.96317 0.121479 3.97048 0.120471 3.97779 0.119463ZM6.16926 4.00854C6.16926 2.81154 5.19704 1.83925 3.99997 1.83925C2.80296 1.83925 1.83068 2.81154 1.83068 4.00854C1.83068 5.20555 2.80296 6.17783 3.99997 6.17783C5.19697 6.17783 6.16926 5.20555 6.16926 4.00854Z" />
    </symbol>
    
    <symbol viewBox="0 0 7 12" id="arrow">
        <path d="M0 0.777822L5.39394 6.00007L0 11.2223L0.802728 12L7 6L0.802728 0L0 0.777822Z"/>
    </symbol>

    <symbol width="16" height="16" viewBox="0 0 16 16" id='cross' >
        <path d="M0.187452 15.8125C0.437387 16.0625 0.842613 16.0625 1.09255 15.8125L8 8.9051L14.9075 15.8125C15.1574 16.0625 15.5626 16.0625 15.8125 15.8125C16.0625 15.5626 16.0625 15.1574 15.8125 14.9075L8.9051 8L15.8125 1.09255C16.0625 0.842613 16.0625 0.437387 15.8125 0.187451C15.5626 -0.0624842 15.1574 -0.0624842 14.9075 0.187451L8 7.0949L1.09255 0.187452C0.842613 -0.0624839 0.437387 -0.0624839 0.187452 0.187452C-0.0624839 0.437387 -0.0624839 0.842613 0.187452 1.09255L7.0949 8L0.187452 14.9075C-0.0624839 15.1574 -0.0624839 15.5626 0.187452 15.8125Z"/>
    </symbol>

</svg>